<?xml version="1.0" encoding="UTF-8"?>
<svg id="_레이어_2" data-name="레이어 2" xmlns="http://www.w3.org/2000/svg" viewBox="0 0 116.98 116.98">
  <defs>
    <style>
      .cls-1 {
        fill: #000;
      }

      .cls-1, .cls-2 {
        stroke-width: 0px;
      }

      .cls-2 {
        fill: #fff;
      }
    </style>
  </defs>
  <g id="_레이어_1-2" data-name=" 레이어 1">
    <g>
      <rect class="cls-1" width="116.98" height="116.98" rx="10.3" ry="10.3"/>
      <path class="cls-2" d="M32.4,86.22c5.19-.05,10.35-.02,15.56-.02.37-.02.73-.06,1.14-.1.27-.03.48-.27.48-.57v-24.84c0-.57.68-.79.97-.32,0,0,0,0,0,.01,5.36,8.16,10.7,16.32,16.02,24.52.6.91,1.24,1.3,2.26,1.3,5.25-.02,10.46-.02,15.71-.02.39,0,.78-.08,1.18-.14.25-.04.45-.26.46-.54.01-.27.02-.48.02-.72l-.04.02c.02-17.47,0-34.96.02-52.43,0-1.32-.42-1.61-1.53-1.61-5.27.05-10.57.05-15.85,0-1.29-.02-1.53.53-1.53,1.78v26.18h.04c-.09.02-.16.05-.27.05-.13-.26-.29-.5-.44-.74-5.45-8.64-10.88-17.3-16.29-25.96-.58-.91-1.2-1.3-2.26-1.3-5.19.05-10.35.07-15.56,0-1.31-.02-1.75.36-1.75,1.82.02,17.28.02,34.53,0,51.83,0,1.37.35,1.8,1.64,1.8Z"/>
    </g>
  </g>
</svg>