<?xml version="1.0" encoding="UTF-8"?>
<svg id="_레이어_2" data-name="레이어 2" xmlns="http://www.w3.org/2000/svg" viewBox="0 0 116.98 116.98">
  <defs>
    <style>
      .cls-1 {
        fill: #000;
      }

      .cls-1, .cls-2 {
        stroke-width: 0px;
      }

      .cls-2 {
        fill: #fff;
      }
    </style>
  </defs>
  <g id="_레이어_1-2" data-name=" 레이어 1">
    <g>
      <rect class="cls-1" width="116.98" height="116.98" rx="10.3" ry="10.3"/>
      <g>
        <path class="cls-2" d="M91.64,53.5v.62s-.03.09-.03.13c0,.89-.09,1.79-.23,2.68-.44,2.81-1.42,5.41-2.9,7.85-1.72,2.86-3.96,5.26-6.59,7.29-3.11,2.42-6.57,4.18-10.3,5.44-2.41.82-4.87,1.37-7.38,1.72-1.85.25-3.7.38-5.57.39-.8,0-1.62,0-2.42-.06-1.09-.08-2.18-.19-3.26-.3-.12,0-.22-.03-.34.05-3.74,2.62-7.47,5.25-11.22,7.86-.66.47-1.32.91-1.99,1.36-.27.18-.58.32-.92.35-.35.03-.56-.13-.62-.48s0-.69.08-1.01c.84-3.11,1.68-6.23,2.53-9.34.21-.74.4-1.49.61-2.24-.06-.04-.13-.06-.19-.1-.75-.4-1.52-.78-2.25-1.2-3.13-1.83-5.92-4.08-8.21-6.9-2.34-2.89-3.99-6.13-4.73-9.79-.21-1.04-.35-2.07-.34-3.13.01-.8,0-1.61,0-2.41v-.21c.16-1.77.53-3.5,1.14-5.18,1.18-3.29,3.07-6.14,5.49-8.64,1.93-1.99,4.12-3.65,6.52-5.06,3.06-1.79,6.31-3.08,9.74-3.95,1.59-.4,3.2-.7,4.82-.91,1.14-.14,2.29-.23,3.45-.22,1.46.01,2.93,0,4.39,0,.62,0,1.23.03,1.85.09,1.94.18,3.86.52,5.75.98,2.93.73,5.72,1.76,8.39,3.15,3.38,1.76,6.39,4,8.92,6.86,1.88,2.14,3.38,4.51,4.42,7.16.87,2.25,1.35,4.6,1.39,7.02,0,.04.01.08.03.12h0ZM76.14,54.82c.04.05.06.09.08.13,1.05,1.74,2.11,3.46,3.16,5.19.26.41.51.83.76,1.24.18.28.38.57.69.7.69.26,1.36.21,1.96-.26.53-.41.69-1.28.39-1.92-.08-.16-.16-.31-.26-.47-1.42-2.32-2.86-4.64-4.3-6.96-.05-.08-.09-.13,0-.22,1.05-1.17,2.09-2.32,3.12-3.48.22-.25.45-.49.63-.76.39-.61.28-1.35-.22-1.83-.43-.4-1.32-.63-1.93-.18-.18.14-.36.3-.51.48-1.77,2.06-3.54,4.13-5.31,6.2-.04.04-.06.08-.13.14v-5.43c-.03-.88-.6-1.49-1.45-1.62-.76-.12-1.46.26-1.76.93-.13.27-.17.56-.17.87v12.8c0,.14,0,.28.03.43.1.62.41,1.1,1.02,1.31.62.22,1.23.17,1.76-.27.44-.36.58-.87.58-1.42v-3.46c0-.1.03-.18.1-.26.27-.27.53-.56.79-.84.32-.34.65-.69.98-1.04h-.03ZM51.95,45.76h-.62c-.61.04-1.08.28-1.35.84-.05.1-.09.22-.13.34-1.41,3.96-2.82,7.91-4.22,11.88-.18.52-.35,1.04-.47,1.58-.17.83.31,1.58,1.1,1.76.21.05.43.05.63.05.7-.03,1.11-.34,1.33-1,.28-.83.56-1.66.83-2.49.04-.12.09-.16.22-.16h5.16c.14,0,.19.04.23.17.26.8.53,1.61.79,2.41.17.53.51.91,1.06,1.02.21.04.41.05.62.05.89-.04,1.59-.89,1.45-1.77-.05-.34-.14-.66-.25-.97-1.2-3.59-2.42-7.18-3.64-10.76-.21-.62-.41-1.24-.63-1.85-.25-.66-.74-1.02-1.44-1.08-.23-.01-.45,0-.69,0v-.03ZM38.56,49.08v11.33c0,.97.53,1.63,1.41,1.79.74.13,1.44-.21,1.76-.83.17-.31.22-.66.22-1.01v-11.28h3.16c.27,0,.56-.04.83-.13,1.23-.41,1.24-1.89.53-2.47-.36-.31-.8-.43-1.27-.43h-9.9c-.32,0-.63.06-.93.21-.53.26-.8.7-.8,1.28s.23,1.04.76,1.32c.32.18.69.23,1.05.23h3.17ZM62.69,58.88v-11.19c0-.16,0-.31-.03-.47-.1-.66-.41-1.18-1.09-1.39-.67-.21-1.31-.12-1.83.4-.36.36-.47.83-.47,1.33v12.27c0,.21.01.4.05.61.12.78.53,1.26,1.24,1.41.22.05.44.08.66.08h7.12c.23,0,.47-.04.69-.1.65-.18,1.05-.69,1.08-1.35.03-.71-.32-1.24-.98-1.46-.26-.08-.53-.13-.8-.13h-5.65,0Z"/>
        <path class="cls-2" d="M53.87,56.06h-4c.67-2.14,1.35-4.26,2.02-6.39h.05c.65,2.12,1.28,4.24,1.93,6.39Z"/>
      </g>
    </g>
  </g>
</svg>