<?xml version="1.0" encoding="UTF-8"?>
<svg id="_레이어_2" data-name="레이어 2" xmlns="http://www.w3.org/2000/svg" viewBox="0 0 116.98 116.98">
  <defs>
    <style>
      .cls-1 {
        fill: #000;
      }

      .cls-1, .cls-2 {
        stroke-width: 0px;
      }

      .cls-2 {
        fill: #fff;
      }
    </style>
  </defs>
  <g id="_레이어_1-2" data-name=" 레이어 1">
    <g>
      <rect class="cls-1" width="116.98" height="116.98" rx="10.3" ry="10.3"/>
      <g>
        <path class="cls-2" d="M75.89,20.48h-34.77c-11.36,0-20.64,9.28-20.64,20.62v34.76c0,11.36,9.28,20.64,20.63,20.64h34.77c11.35,0,20.63-9.28,20.63-20.62v-34.76c.01-11.36-9.27-20.64-20.61-20.64h0ZM88.93,72.39c0,9.07-7.43,16.5-16.5,16.5h-27.82c-9.07,0-16.5-7.42-16.5-16.5v-27.81c0-9.07,7.43-16.5,16.5-16.5h27.82c9.07,0,16.5,7.42,16.5,16.5v27.81h0Z"/>
        <path class="cls-2" d="M58.5,39.94c-10.23,0-18.55,8.3-18.55,18.55s8.3,18.55,18.55,18.55,18.55-8.3,18.55-18.55-8.3-18.55-18.55-18.55ZM58.5,70.89c-6.85,0-12.4-5.55-12.4-12.4s5.55-12.4,12.4-12.4,12.4,5.55,12.4,12.4-5.55,12.4-12.4,12.4Z"/>
        <circle class="cls-2" cx="77.05" cy="37.3" r="4.81"/>
      </g>
    </g>
  </g>
</svg>