<?xml version="1.0" encoding="UTF-8"?>
<svg id="_레이어_1" data-name=" 레이어 1" xmlns="http://www.w3.org/2000/svg" version="1.1" viewBox="0 0 484 106">
  <defs>
    <style>
      .cls-1 {
        fill: #000;
        stroke-width: 0px;
      }
    </style>
  </defs>
  <path class="cls-1" d="M1,3.1c8.5.2,16.9.4,25.4.5,6.8,0,13.2,1.3,18.9,5.2,13.6,9.3,14.9,26.4,2.6,37.6,2.7,1.1,5.5,1.9,8,3.3,9,5.2,13.5,13.2,13.1,23.5-.4,11.5-5.8,20.3-16.1,25.6-2.9,1.5-6.2,2.9-9.4,2.9-14.1.3-28.3,0-42.4,0V3.1h0ZM16.8,56.9v30c7.2,0,14.1.2,20.9,0,9.2-.4,16.3-7.4,16.2-15.7,0-7.8-6.9-13.9-16.3-14.2-6.7-.2-13.3,0-20.7,0h0ZM16.6,42.9c5.2,0,9.8.3,14.4,0,6-.5,10.5-5.4,10.9-11.2.3-5.4-3.4-11.3-9-12.2-5.3-.8-10.7-.2-16.3-.2,0,0,0,23.6,0,23.6Z"/>
  <path class="cls-1" d="M483,101.8h-57.8V3.8h54.5v15h-39.2v25.1h33.2v15.7h-33.2v27.2h42.5v15Z"/>
  <path class="cls-1" d="M176,102h-15.7V1.2c21.4,22.3,42,43.8,63.4,66.1V3.6h15.6v100.9c-21.3-22.2-41.9-43.6-63.3-66v63.5h0Z"/>
  <path class="cls-1" d="M258.1,3.8h14.9c0,1.9.2,3.7.2,5.4v52.8c0,3.3.2,6.7,1.1,9.9,2.8,10.8,12.4,17.4,23.2,16.1,11.1-1.3,19.1-10.6,19.2-23,.2-18.4,0-36.9,0-55.3V3.9h15.3c.1,1.4.4,2.7.4,3.9,0,18.8.1,37.5,0,56.3-.2,19.2-10.8,34-27.2,38.5-22.3,6.1-45.2-8.2-46.9-31.4-1.6-22.3-.3-44.8-.3-67.5h0Z"/>
  <path class="cls-1" d="M81.6,3.9h54.7v14.9h-39.1v25.2h33.2v15.3h-33.1v27.2h42.5v15.3h-58.2V3.9h0Z"/>
  <path class="cls-1" d="M370.2,45h36.5v15.5h-36.8v41.5h-15.5V3.6h58.2v15.1h-42.4v26.4h0Z"/>
</svg>